PathFileType	4	(X/Y/Z)	Patient4_TMGait_0pt7_02_left_22.trc.trc
DataRate	CameraRate	NumFrames	NumMarkers	Units	OrigDataRate	OrigDataStartFrame	OrigNumFrames
89.743589743590	89.743589743590	5	33	mm	89.743589743590	18	       141
Frame#	Time	Sacral			L.Shoulder			Chest			R.Shoulder			Neck			R.ASIS			L.ASIS			R.Thigh.Superior			R.Thigh.Lateral			R.Thigh.Inferior			R.Patella			L.Thigh.Superior			L.Thigh.Lateral			L.Thigh.Inferior			L.Patella			L.Shank.Superior			L.Shank.Lateral			L.Shank.Inferior			R.Shank.Superior			R.Shank.Lateral			R.Shank.Inferior			R.Heel			R.Midfoot.Superior			R.Midfoot.Lateral			R.Toe			L.Heel			L.Midfoot.Lateral			L.Midfoot.Superior			L.Toe			L.Elbow			L.Wrist			R.Elbow			R.Wrist			
		X1	Y1	Z1	X2	Y2	Z2	X3	Y3	Z3	X4	Y4	Z4	X5	Y5	Z5	X6	Y6	Z6	X7	Y7	Z7	X8	Y8	Z8	X9	Y9	Z9	X10	Y10	Z10	X11	Y11	Z11	X12	Y12	Z12	X13	Y13	Z13	X14	Y14	Z14	X15	Y15	Z15	X16	Y16	Z16	X17	Y17	Z17	X18	Y18	Z18	X19	Y19	Z19	X20	Y20	Z20	X21	Y21	Z21	X22	Y22	Z22	X23	Y23	Z23	X24	Y24	Z24	X25	Y25	Z25	X26	Y26	Z26	X27	Y27	Z27	X28	Y28	Z28	X29	Y29	Z29	X30	Y30	Z30	X31	Y31	Z31	X32	Y32	Z32	X33	Y33	Z33	

18	25.209428571429	809.729531471181	1010.362564196294	513.566524601247	993.442397439335	1423.618368008488	314.594566776069	1110.269180889222	1344.531883430190	462.125530926356	1056.137324291057	1426.328970691264	643.743730245594	1018.991050127994	1484.472573151346	469.312521921238	1036.170857052688	932.539532969835	617.460148950861	1010.263626961622	951.922947442064	342.812474805836	1029.699927947047	719.556831153113	590.325645398490	923.484389076171	629.479107619514	652.772020404350	981.630931401252	562.382267379430	571.981673209659	961.207984920530	479.287790747210	576.671910771784	1092.668061587875	788.273940740316	386.703943522559	1069.514067347035	656.804404069659	301.652107868139	1170.251543081828	606.677677015410	374.783217111931	1204.413680589600	538.079734339180	370.878474107110	1184.076434316373	461.145556006122	358.769346037294	1117.698606484351	335.797709497222	295.826495346856	1191.700674094881	230.828949677371	358.181556427224	922.868256604514	395.423782791884	583.223160590474	839.561961951310	301.111391931931	644.175289478446	869.754302634309	202.301715805939	580.245093118305	721.179183087739	44.006711593130	545.983272545146	890.994366052816	96.023429769175	588.337478461381	800.638271736168	37.173989196413	623.874895329336	1009.375524824722	40.848188809526	623.645378824054	1099.531114684080	50.068536856979	380.452067219983	1182.376558532260	57.479482420419	309.765665000409	1248.838986649338	135.742797977515	340.778592894773	1385.458634717475	108.873817286965	330.101796558221	831.245331721054	1109.122426119143	225.070732227480	779.353871933042	854.997468292105	233.520539055540	1158.406720043464	1098.124404012854	758.570433270783	1398.588755533629	1061.400002616807	676.209106799629	
19	25.220571428571	811.383422592133	1008.716432768622	511.925476131812	993.826536672645	1422.636744673025	313.727991156173	1110.841935309818	1343.549689912959	461.027084050852	1056.553437050562	1424.958050482392	642.704233415188	1019.298918490104	1483.184634702928	468.515620819211	1037.794401436562	931.227547202840	616.250290964631	1012.318824709185	950.208977028711	341.402014384934	1029.254651061055	717.865302816971	589.651391385800	921.746931923283	628.686282302325	651.945854048161	979.320509630614	560.952775426439	571.466840874224	957.931358585994	477.871667582288	576.068873525440	1093.535051153837	784.725901897066	385.339045849404	1067.998439587186	652.996598500132	300.992484954878	1168.607998753813	602.330575113516	373.600381037041	1201.861541745040	534.444166773561	370.269264656695	1182.824543459114	457.807530445212	358.281568274637	1118.309727828755	330.829454128950	296.924284231457	1194.870575487213	227.729717996623	359.329125368716	918.641336007896	394.372665691796	582.745819467954	834.278182832661	301.106813888576	643.977302852263	863.253531929546	201.876349620788	580.189184758135	713.359654248474	44.305839801445	546.077209688170	883.207346325924	95.943935380479	588.343030236386	792.822578662910	37.284713586115	624.024232931972	1001.554015426854	40.562091984401	623.729327954888	1105.874725890743	46.302650613598	383.305464905191	1188.268759204804	54.137630439830	312.168584010383	1254.073170237423	132.966938479170	342.512867778638	1390.875716095025	107.251698553248	331.352802431301	828.417594966308	1110.500412422638	224.393290838929	773.982767200999	856.793973064594	233.538864611897	1163.981660358794	1098.678102742173	755.461280703304	1404.219987794791	1074.156148532089	670.626186517759	
20	25.231714285714	813.235393056489	1006.911225528226	510.044780898716	994.311892674068	1421.478617819040	312.649912525816	1111.457115112500	1342.554605233853	459.858526986406	1056.772169048330	1423.540081950464	641.540513540262	1019.529263269872	1481.806055066213	467.529251888585	1039.574815815188	929.777244412814	614.996165250757	1014.668700998356	948.303157463394	339.988675205713	1029.160796517857	716.092478639439	588.914378568700	920.378848762360	627.812361055856	651.035234418221	977.433493479701	559.426943641181	570.900787696751	955.040935916007	476.314619734640	575.387072798531	1094.811309368293	780.969438018725	383.829335075952	1066.594938337741	649.029783546104	300.404651111332	1167.280789231418	597.835916252716	372.263555760355	1199.357144922768	530.376483942874	369.479106430064	1181.270263096493	454.024943053270	357.655460917334	1117.599783466557	325.871255970974	298.367758209886	1196.299821450519	224.254838262388	360.526899489548	914.755003706963	393.206862700917	582.214474625212	829.234487966885	301.098599758015	643.752045695045	856.883074463271	201.423237996726	580.129460417824	705.542711033164	44.690000292175	546.217707619619	875.457434368790	95.908156556292	588.395997500947	785.024572299786	37.415228066662	624.191257753699	993.750257317499	40.266842883900	623.826101931811	1109.193037985164	43.239933589548	386.702365933254	1190.793332690515	50.875401406453	314.699148989921	1256.831066127804	129.394556872021	344.190015163848	1393.400133128453	103.464931781404	331.796960025394	826.277395830679	1111.356468012633	223.639511907176	769.486796513329	858.057266279537	233.443014639064	1168.999452461027	1099.069747241019	752.220230389380	1408.721213646722	1086.232379177767	665.250003484553	
21	25.242857142857	815.265336601973	1004.983670959453	507.950231258241	994.914749759673	1420.163210307598	311.349163809187	1112.133893125251	1341.560239338142	458.607452020759	1056.832707674431	1422.098352516640	640.245493218669	1019.715084336647	1480.367501736620	466.337959955016	1041.482984140218	928.207156028401	613.685739494392	1017.264656595525	946.260087100806	338.575320688291	1029.419432230207	714.262692055785	588.106802463826	919.391973689229	626.870301497196	650.032050885069	975.989948045718	557.815792359012	570.278906502042	952.564069486941	474.614800029670	574.622904711292	1096.470122872466	777.117675138193	382.189832182665	1065.360414684795	645.030899685755	299.890503016265	1166.324119692162	593.343848585293	370.826002364230	1197.005529028528	526.047050040896	368.601146809917	1179.555165074085	449.956981632265	356.969608771700	1115.881359509233	321.037115514822	299.985088435133	1196.214561305070	220.494543851680	361.730786381840	911.220171705298	391.940582067265	581.628289073438	824.444391815299	301.107737642948	643.493410566541	850.654560172837	200.965461608183	580.066461591920	697.729316707801	45.200397973085	546.419209369630	867.758326527349	95.919753155713	588.502340566749	777.247844009198	37.578814825404	624.379045626473	985.969207760850	39.968571068111	623.935249681021	1109.707806897820	40.847250994094	390.317556564544	1190.313354350231	47.748388497593	317.175178952807	1257.383784666137	125.146525276313	345.799300019694	1393.385124813126	97.735132783109	331.655709307390	824.847708458678	1111.662750496337	222.782859131624	765.901762240951	858.762763812334	233.199015639824	1173.433253409227	1099.268917808375	748.901485337013	1412.150707008151	1097.541646446451	660.103102236967	
22	25.254000000000	817.437641638220	1002.992296700446	505.677731530059	995.653485345813	1418.731039858483	309.823331223285	1112.893868542334	1340.588372856121	457.262077698858	1056.792594502289	1420.670006668180	638.814536360271	1019.903133155021	1478.915946380224	464.931983899066	1043.479505974460	926.557614989430	612.303435474059	1020.039981677287	944.160931380866	337.157602646879	1030.014117336223	712.418544903210	587.221728283598	918.787676872174	625.884292060313	648.929718120751	975.005839224202	556.146383748652	569.598160581718	950.535517177003	472.778379156415	573.783656064564	1098.468394738192	773.322629029897	380.439467943275	1064.364988848456	641.164049366409	299.426412209011	1165.780534823830	589.034679331580	369.338417355174	1194.919368623136	521.673605015343	367.722555387474	1177.837974789798	445.804488888357	356.291391574586	1113.524389519283	316.487460640118	301.566437183057	1194.887163407196	216.601281520243	362.883341257213	908.048526014218	390.601665138761	580.995044659727	819.918945076481	301.170072812856	643.197521399780	844.584654792983	200.538953918689	580.006295305754	689.924621944325	45.895870518936	546.693284724329	860.131730298573	95.981447433154	588.669495898414	769.497092355264	37.798590875324	624.591802371613	978.213945381650	39.673422341938	624.054435609057	1107.756524219138	39.090479045047	393.817652260897	1187.311322376502	44.847311075648	319.422789901979	1256.051057393312	120.447741667373	347.317772190239	1391.242456596068	90.499453715082	331.174918031900	824.157374176567	1111.414998344500	221.801301202874	763.268819473515	858.905533858762	232.770838029872	1177.256859110219	1099.250484487661	745.565352351843	1414.573406842699	1107.997732173979	655.206938422604	
